{"title":"The Executioner's Song DC 1982 DVDRip x264","uid":9368446,"size":4654863702,"categoryP":"video","categoryS":"movies","magnet":"?xt=urn:btih:187de6b6d07e0923924c92f1d10ec516a8f42833&amp;dn=The+Executioner%27s+Song+DC+1982+DVDRip+x264&amp;tr=udp%3A%2F%2Ftracker.openbittorrent.com%3A80&amp;tr=udp%3A%2F%2Fopen.demonii.com%3A1337&amp;tr=udp%3A%2F%2Ftracker.coppersurfer.tk%3A6969&amp;tr=udp%3A%2F%2Fexodus.desync.com%3A6969","seeders":0,"leechers":2,"uploader":"7","files":-1,"time":1387476288,"description":"Based on the true story of murderer Gary Mark Gilmore, spanning the last nine months of his life (May 1976-January 1977) in which at age 35, after being released for serving a long prison term in Utah for armed robbery, the unstable Gilmore murdered two men in two seperate and senseless robberies in which after a brief public trial in October, he was sentenced to death by firing squad which drew a lot of media attention when Gilmore insisted that his execution be carried out and he became the first man to be executed in the USA since the government reinstated the death penalty in 1976.\n\nDirectors: Lawrence Schiller\nWriters: Norman Mailer\nProducers: Michael Economou, John Thomas Lenox, Mimi Rothman, Lawrence Schiller\nComposers: John Cacavas\nCinematographers: Freddie Francis\nRuntime: Sweden: 2h 16mn\n USA: 2h 37mn\nCountry: USA\nLanguage: English\nCertification: USA:Unrated\n\nFormat : Matroska\nFormat version : Version 4 / Version 2\nFile size : 4.34 GiB\nDuration : 2h 15mn\nOverall bit rate : 4 595 Kbps\nEncoded date : UTC 2013-01-20 23:56:49\nWriting application : mkvmerge v6.0.0 ('Coming Up For Air') built on Jan 20 2013 10:36:39\nWriting library : libebml v1.3.0 + libmatroska v1.4.0\n\nVideo\nID : 1\nFormat : AVC\nFormat/Info : Advanced Video Codec\nFormat profile : &lt;a class=&quot;__cf_email__&quot; href=&quot;/cdn-cgi/l/email-protection&quot; data-cfemail=&quot;7038191718303c445e40&quot;&gt;[email&amp;#160;protected]&lt;/a&gt;&lt;script data-cfhash='f9e31' type=&quot;text/javascript&quot;&gt;\n/* &lt;![CDATA[ */!function(){try{var t=&quot;currentScript&quot;in document?document.currentScript:function(){for(var t=document.getElementsByTagName(&quot;script&quot;),e=t.length;e--;)if(t[e].getAttribute(&quot;data-cfhash&quot;))return t[e]}();if(t&amp;&amp;t.previousSibling){var e,r,n,i,c=t.previousSibling,a=c.getAttribute(&quot;data-cfemail&quot;);if(a){for(e=&quot;&quot;,r=parseInt(a.substr(0,2),16),n=2;a.length-n;n+=2)i=parseInt(a.substr(n,2),16)^r,e+=String.fromCharCode(i);e=document.createTextNode(e),c.parentNode.replaceChild(e,c)}t.parentNode.removeChild(t);}}catch(u){}}()/* ]]&gt; */&lt;/script&gt;\nFormat settings, CABAC : Yes\nFormat settings, ReFrames : 16 frames\nCodec ID : V_MPEG4/ISO/AVC\nDuration : 2h 15mn\nBit rate : 4 312 Kbps\nWidth : 706 pixels\nHeight : 476 pixels\nDisplay aspect ratio : 4:3\nOriginal display aspect ratio : 4:3\nFrame rate : 23.976 fps\nColor space : YUV\nChroma subsampling : 4:2:0\nBit depth : 8 bits\nScan type : Progressive\nBits/(Pixel*Frame) : 0.535\nStream size : 4.07 GiB (94%)\nWriting library : x264 core 129 r2230 1cffe9f\nEncoding settings : cabac=1 / ref=16 / deblock=1:-3:-3 / analyse=0x3:0x133 / me=tesa / subme=11 / psy=1 / psy_rd=1.00:0.05 / mixed_ref=1 / me_range=24 / chroma_me=1 / trellis=2 / 8x8dct=1 / cqm=0 / deadzone=21,11 / fast_pskip=0 / chroma_qp_offset=-3 / threads=6 / lookahead_threads=1 / sliced_threads=0 / nr=0 / decimate=0 / interlaced=0 / bluray_compat=0 / constrained_intra=0 / bframes=10 / b_pyramid=2 / b_adapt=2 / b_bias=0 / direct=3 / weightb=1 / open_gop=0 / weightp=2 / keyint=250 / keyint_min=23 / scenecut=40 / intra_refresh=0 / rc_lookahead=250 / rc=crf / mbtree=1 / crf=16.4 / qcomp=0.70 / qpmin=0 / qpmax=69 / qpstep=4 / ip_ratio=1.40 / aq=1:0.90\nLanguage : English\nDefault : Yes\nForced : No\n\nAudio\nID : 2\nFormat : AC-3\nFormat/Info : Audio Coding 3\nMode extension : CM (complete main)\nCodec ID : A_AC3\nDuration : 2h 15mn\nBit rate mode : Constant\nBit rate : 192 Kbps\nChannel(s) : 2 channels\nChannel positions : Front: L R\nSampling rate : 48.0 KHz\nBit depth : 16 bits\nCompression mode : Lossy\nDelay relative to video : 22ms\nStream size : 185 MiB (4%)\nTitle : English DD 2.0 192k\nLanguage : English\nDefault : Yes\nForced : No\n\nText\nID : 3\nFormat : UTF-8\nCodec ID : S_TEXT/UTF8\nCodec ID/Info : UTF-8 Plain Text\nTitle : English Closed Captions Subtitles\nLanguage : English\nDefault : Yes\nForced : No\n\nMenu\n00:00:00.000 : en:Chapter 1\n00:06:54.834 : en:Chapter 2\n00:14:11.134 : en:Chapter 3\n00:20:43.301 : en:Chapter 4\n00:27:24.434 : en:Chapter 5\n00:36:34.101 : en:Chapter 6\n00:41:40.234 : en:Chapter 7\n00:48:04.568 : en:Chapter 8\n00:56:36.068 : en:Chapter 9\n01:04:28.402 : en:Chapter 10\n01:10:41.203 : en:Chapter 11\n01:16:15.837 : en:Chapter 12\n01:23:49.004 : en:Chapter 13\n01:30:39.004 : en:Chapter 14\n01:37:24.137 : en:Chapter 15\n01:45:53.604 : en:Chapter 16\n01:53:31.238 : en:Chapter 17\n01:59:01.872 : en:Chapter 18\n02:04:35.372 : en:Chapter 19\n02:11:08.372 : en:Chapter 20\n\n","torrent":{"xt":"urn:btih:187de6b6d07e0923924c92f1d10ec516a8f42833","amp;dn":"The+Executioner%27s+Song+DC+1982+DVDRip+x264","amp;tr":["udp%3A%2F%2Ftracker.openbittorrent.com%3A80","udp%3A%2F%2Fopen.demonii.com%3A1337","udp%3A%2F%2Ftracker.coppersurfer.tk%3A6969","udp%3A%2F%2Fexodus.desync.com%3A6969"],"infoHash":"187de6b6d07e0923924c92f1d10ec516a8f42833","infoHashBuffer":{"type":"Buffer","data":[24,125,230,182,208,126,9,35,146,76,146,241,209,14,197,22,168,244,40,51]},"announce":[],"urlList":[]}}